<svg xmlns="http://www.w3.org/2000/svg" width="900" height="1200" viewBox="0 0 900 1200" role="img" aria-labelledby="title desc">
  <title id="title">wuwu Founder 线稿形象</title>
  <desc id="desc">wuwu 的上半身简笔线稿头像，保留银灰短发、侧脸微笑和条纹外套特征。</desc>
  <defs>
    <style>
      .bold{fill:none;stroke:#6f681b;stroke-width:10;stroke-linecap:round;stroke-linejoin:round}
      .line{fill:none;stroke:#6f681b;stroke-width:6;stroke-linecap:round;stroke-linejoin:round}
      .thin{fill:none;stroke:#9e9866;stroke-width:3.2;stroke-linecap:round;stroke-linejoin:round;opacity:.58}
      .shade{fill:none;stroke:#cbc5a1;stroke-width:2.3;stroke-linecap:round;stroke-linejoin:round;opacity:.48}
    </style>
  </defs>
  <g transform="translate(44 20)">
    <path class="bold" d="M292 382c-18-91 18-164 105-211 85-46 197-31 264 34 49 48 62 112 38 188"/>
    <path class="bold" d="M308 313c55-91 141-133 258-122 76 7 128 41 158 102"/>
    <path class="line" d="M326 270c74-47 155-67 243-58M307 321c84-40 181-47 289-22M372 224c57-25 119-29 187-13"/>
    <path class="thin" d="M336 248c49-18 99-27 152-26M354 300c77-16 156-17 238-2M426 210c-19 34-31 70-37 109M492 210c6 35 4 70-5 105"/>
    <path class="bold" d="M327 365c-13 73 4 153 48 211 37 49 86 74 146 72 57-2 105-30 143-85"/>
    <path class="bold" d="M326 430c-30 1-48 34-37 73 9 30 32 51 58 51"/>
    <path class="line" d="M420 467c32-13 70-11 105 6"/>
    <path class="bold" d="M438 497c23-8 47-6 72 5"/>
    <path class="line" d="M555 466c35 0 68 9 98 27"/>
    <path class="bold" d="M572 496c22-7 46-5 71 6"/>
    <path class="line" d="M544 502c-7 45-23 84-48 118 27 9 60 6 96-10"/>
    <path class="line" d="M596 620c21-3 42-9 62-18"/>
    <path class="bold" d="M462 632c44 25 102 22 153-9"/>
    <path class="bold" d="M388 660c-108 31-189 102-244 213"/>
    <path class="bold" d="M642 660c109 34 186 108 231 223"/>
    <path class="line" d="M354 760c100 56 218 68 354 37"/>
    <path class="line" d="M378 678c40 54 88 88 143 102 55-16 102-50 141-103"/>
    <path class="bold" d="M270 814c-31 89-38 182-22 280"/>
    <path class="bold" d="M728 818c30 88 35 180 17 276"/>
    <path class="line" d="M310 858c122 39 257 44 405 15M288 938c136 35 279 37 430 8M298 1020c129 21 270 20 422-5"/>
    <path class="thin" d="M342 762v322M380 750v340M420 740v352M462 735v357M522 782v310M572 770v315M620 740v342M662 752v324M701 776v288"/>
    <path class="line" d="M424 707c-17 24-23 49-18 77M594 703c13 26 16 52 9 80"/>
    <path class="thin" d="M423 679c30 42 63 72 99 89M641 680c-34 42-71 72-110 89"/>
    <path class="shade" d="M372 708c45 41 95 67 150 79M638 710c-42 39-88 65-137 77"/>
  </g>
</svg>
