<svg xmlns="http://www.w3.org/2000/svg" width="900" height="1200" viewBox="0 0 900 1200" role="img" aria-labelledby="title desc">
  <title id="title">张俊武 Founder 线稿形象</title>
  <desc id="desc">短发、稳健、双臂交叠的创始人线稿半身像。</desc>
  <defs>
    <style>
      .bold{fill:none;stroke:#6f681b;stroke-width:10;stroke-linecap:round;stroke-linejoin:round}
      .line{fill:none;stroke:#6f681b;stroke-width:6;stroke-linecap:round;stroke-linejoin:round}
      .thin{fill:none;stroke:#9e9866;stroke-width:3.2;stroke-linecap:round;stroke-linejoin:round;opacity:.62}
      .shade{fill:none;stroke:#cbc5a1;stroke-width:2.4;stroke-linecap:round;stroke-linejoin:round;opacity:.54}
    </style>
  </defs>
  <g transform="translate(36 22)">
    <path class="bold" d="M260 433c-11-104 41-185 143-212 94-25 185 6 238 82 31 44 40 95 31 151"/>
    <path class="bold" d="M272 378c43-82 112-124 208-129 80-4 142 28 178 90"/>
    <path class="line" d="M288 326c68-39 143-51 226-35M273 358c86-33 184-38 294-16M318 286c48-32 111-45 188-40"/>
    <path class="bold" d="M286 426c-13 82 0 198 39 259 33 52 78 82 133 82 57 0 103-32 135-88 35-62 43-176 33-253"/>
    <path class="bold" d="M279 501c-36-1-57 37-43 86 10 36 36 63 66 63M631 501c38-1 58 37 44 86-10 36-36 63-67 63"/>
    <path class="line" d="M357 548c34-17 78-17 110 1M513 548c34-17 78-17 110 1"/>
    <path class="bold" d="M376 586c25-11 52-11 78 0M531 586c25-11 52-11 78 0"/>
    <path class="line" d="M480 587c-2 47-16 91-41 130 26 14 60 13 92-3"/>
    <path class="thin" d="M372 671c57 18 113 18 171 0"/>
    <path class="bold" d="M386 732c48 38 120 38 173 0"/>
    <path class="bold" d="M323 790c-111 39-197 115-265 230M592 790c111 38 198 115 267 232"/>
    <path class="bold" d="M265 879c66 83 138 135 216 155 79-24 149-75 211-155"/>
    <path class="bold" d="M148 1044c138-89 250-111 335-68M767 1044c-139-91-253-114-342-68"/>
    <path class="line" d="M232 985c78 53 158 80 241 82 82 2 166-25 250-82"/>
    <path class="line" d="M315 807l140 171 146-171M373 832l84 103 83-102"/>
    <path class="thin" d="M280 934c116 55 240 60 372 16M183 1072c190 58 381 58 572-2M335 815c35 47 76 84 123 109M585 816c-37 48-79 84-126 109"/>
    <path class="shade" d="M350 503c74-22 156-23 246-2M356 522c83-9 164-5 243 9M390 706c51 13 103 13 156 0"/>
  </g>
</svg>
