<svg xmlns="http://www.w3.org/2000/svg" width="900" height="1200" viewBox="0 0 900 1200" role="img" aria-labelledby="title desc">
  <title id="title">夏洛克 Founder 线稿形象</title>
  <desc id="desc">夏洛克的上半身简笔线稿头像，保留侧脸、眼镜、中长发和黑色外套气质。</desc>
  <defs>
    <style>
      .bold{fill:none;stroke:#6f681b;stroke-width:10;stroke-linecap:round;stroke-linejoin:round}
      .line{fill:none;stroke:#6f681b;stroke-width:6;stroke-linecap:round;stroke-linejoin:round}
      .thin{fill:none;stroke:#9e9866;stroke-width:3.2;stroke-linecap:round;stroke-linejoin:round;opacity:.58}
      .shade{fill:none;stroke:#cbc5a1;stroke-width:2.3;stroke-linecap:round;stroke-linejoin:round;opacity:.48}
    </style>
  </defs>
  <g transform="translate(34 24)">
    <path class="bold" d="M303 292c31-91 127-143 239-120 86 18 142 84 145 164"/>
    <path class="bold" d="M304 308c62-66 147-95 254-83"/>
    <path class="line" d="M330 247c57-37 124-50 202-39M310 283c82-43 171-54 266-29M346 216c42-24 91-33 148-27"/>
    <path class="thin" d="M350 265c66-20 135-22 207-5M367 232c58-14 113-14 166 0"/>
    <path class="bold" d="M333 315c-28 36-42 83-38 140 4 47 25 87 62 119"/>
    <path class="bold" d="M357 574c38 22 82 29 132 20"/>
    <path class="line" d="M335 382c28-12 58-9 89 8"/>
    <path class="line" d="M425 390c27 2 53 12 77 29"/>
    <path class="line" d="M354 404c34 11 70 10 108-3"/>
    <path class="bold" d="M362 393c20-7 41-4 63 9"/>
    <path class="line" d="M430 404c20 9 36 20 48 34-19 15-46 23-82 22"/>
    <path class="line" d="M320 458c-25 18-52 30-80 36"/>
    <path class="bold" d="M241 494c32 32 72 50 120 53"/>
    <path class="thin" d="M286 525c39 22 82 34 130 35"/>
    <path class="bold" d="M402 604c-32 58-23 114 28 166"/>
    <path class="bold" d="M318 650c-99 42-165 120-197 236"/>
    <path class="bold" d="M456 660c132 52 217 147 255 286"/>
    <path class="line" d="M237 767c82 82 191 124 328 125"/>
    <path class="line" d="M292 704c67 68 151 111 251 129"/>
    <path class="bold" d="M155 862c-24 85-23 174 2 267"/>
    <path class="bold" d="M706 944c19 61 18 124-2 188"/>
    <path class="line" d="M228 883c130 53 279 61 446 24M209 973c139 43 293 46 461 10M219 1061c130 24 273 22 427-5"/>
    <path class="thin" d="M319 673c46 48 89 83 131 106M455 673c-29 48-58 82-87 102"/>
    <path class="shade" d="M283 720c58 38 124 64 197 79M271 806c92 45 199 61 322 49"/>
  </g>
</svg>
