<svg xmlns="http://www.w3.org/2000/svg" width="900" height="1200" viewBox="0 0 900 1200" role="img" aria-labelledby="title desc">
  <title id="title">夏洛克 Founder 线稿形象</title>
  <desc id="desc">年轻、冷静、思考者气质的创始人线稿半身像。</desc>
  <defs>
    <style>
      .bold{fill:none;stroke:#6f681b;stroke-width:10;stroke-linecap:round;stroke-linejoin:round}
      .line{fill:none;stroke:#6f681b;stroke-width:6;stroke-linecap:round;stroke-linejoin:round}
      .thin{fill:none;stroke:#9e9866;stroke-width:3.2;stroke-linecap:round;stroke-linejoin:round;opacity:.62}
      .shade{fill:none;stroke:#cbc5a1;stroke-width:2.4;stroke-linecap:round;stroke-linejoin:round;opacity:.54}
    </style>
  </defs>
  <g transform="translate(40 24)">
    <path class="bold" d="M233 465c-20-116 14-222 121-266 91-37 204-11 267 71 37 48 48 110 33 187"/>
    <path class="line" d="M248 371c64-106 168-152 319-128M232 426c82-89 199-130 368-115M282 298c65-80 150-103 254-73"/>
    <path class="thin" d="M255 342c78-56 161-81 264-78M270 392c77-36 178-49 302-32M318 252c48-43 104-62 175-55"/>
    <path class="bold" d="M262 444c-12 77-2 196 39 260 31 48 74 76 127 76 55 0 102-30 134-83 40-66 51-184 40-254"/>
    <path class="bold" d="M258 508c-38-4-60 36-47 86 10 38 35 65 66 66M606 508c39-4 60 36 47 86-10 38-35 65-66 66"/>
    <path class="line" d="M327 549c33-18 76-18 108-1M479 547c34-18 78-18 110 1"/>
    <path class="bold" d="M347 586c25-12 51-12 76 0M498 586c24-12 50-12 75 0"/>
    <path class="line" d="M449 584c-2 48-15 92-38 130 25 13 56 12 88-2"/>
    <path class="thin" d="M342 688c37 17 75 20 117 10M502 694c22 5 43 4 66-2"/>
    <path class="bold" d="M344 727c47 39 121 41 174 0"/>
    <path class="thin" d="M366 755c44 18 91 18 135 0"/>
    <path class="bold" d="M310 785c-100 37-178 114-237 233M546 786c111 38 190 115 245 233"/>
    <path class="bold" d="M207 978c104 65 247 77 423 18"/>
    <path class="line" d="M120 1104c128-85 243-119 350-102 76 12 144 46 210 102"/>
    <path class="bold" d="M310 798c41 65 82 108 123 128 43-23 78-66 112-127"/>
    <path class="line" d="M238 905l-92 190M281 890l-42 217"/>
    <path class="thin" d="M178 1006c138 70 303 80 492 29M320 817c34 41 72 70 111 88M536 820c-33 41-67 69-102 86"/>
    <path class="shade" d="M321 500c69-31 147-37 237-18M320 515c83-14 166-13 247 4M334 650c53 16 111 16 174 0M286 330c60-56 126-89 197-100"/>
  </g>
</svg>
