<svg xmlns="http://www.w3.org/2000/svg" width="900" height="1200" viewBox="0 0 900 1200" role="img" aria-labelledby="title desc">
  <title id="title">夏洛克线稿形象</title>
  <desc id="desc">男性成员，侧脸、眼镜、中长发和简洁外套的高颜值简笔线稿。</desc>
  <defs>
    <style>
      .b{fill:none;stroke:#6f681b;stroke-width:10;stroke-linecap:round;stroke-linejoin:round}
      .l{fill:none;stroke:#6f681b;stroke-width:6;stroke-linecap:round;stroke-linejoin:round}
      .t{fill:none;stroke:#aaa47a;stroke-width:3;stroke-linecap:round;stroke-linejoin:round;opacity:.58}
    </style>
  </defs>
  <g transform="translate(50 28)">
    <path class="b" d="M264 356c-14-91 36-161 134-187 95-25 197 9 250 84 28 40 35 86 22 134"/>
    <path class="b" d="M288 316c62-67 146-96 250-84"/>
    <path class="l" d="M306 264c62-38 133-50 213-36M288 304c82-37 169-43 264-18M354 229c46-20 96-24 150-13"/>
    <path class="b" d="M305 340c-27 42-36 92-26 150 8 48 34 86 78 112"/>
    <path class="l" d="M332 415c31-12 62-9 92 9M421 421c28 1 55 11 82 30"/>
    <path class="b" d="M350 430c21-7 43-4 66 8"/>
    <path class="l" d="M416 440c19 8 36 19 50 34-27 14-59 18-95 11"/>
    <path class="l" d="M300 492c-28 25-58 41-90 48"/>
    <path class="b" d="M218 540c35 29 77 43 128 42"/>
    <path class="b" d="M382 626c-30 59-18 114 35 166"/>
    <path class="b" d="M296 686c-103 43-175 121-217 234M436 692c135 50 226 142 273 276"/>
    <path class="l" d="M206 818c91 75 213 113 366 113M252 742c78 65 173 105 285 121"/>
    <path class="l" d="M200 926c140 43 295 45 465 6M218 1020c127 24 267 21 421-9"/>
    <path class="t" d="M318 702c45 42 85 71 120 87M455 704c-33 44-65 74-97 91"/>
  </g>
</svg>
