<svg xmlns="http://www.w3.org/2000/svg" width="900" height="1200" viewBox="0 0 900 1200" role="img" aria-labelledby="title desc">
  <title id="title">罗尔 Founder 线稿形象</title>
  <desc id="desc">穿简洁外套、双臂交叉的创始人线稿半身像。</desc>
  <defs>
    <style>
      .bold{fill:none;stroke:#6f681b;stroke-width:10;stroke-linecap:round;stroke-linejoin:round}
      .line{fill:none;stroke:#6f681b;stroke-width:6;stroke-linecap:round;stroke-linejoin:round}
      .thin{fill:none;stroke:#9e9866;stroke-width:3.2;stroke-linecap:round;stroke-linejoin:round;opacity:.62}
      .shade{fill:none;stroke:#cbc5a1;stroke-width:2.4;stroke-linecap:round;stroke-linejoin:round;opacity:.54}
    </style>
  </defs>
  <g transform="translate(38 28)">
    <path class="bold" d="M236 447c-9-119 55-212 172-236 101-21 195 18 249 105 25 40 32 87 26 139"/>
    <path class="bold" d="M252 389c49-97 128-149 239-155 84-4 148 32 183 99"/>
    <path class="line" d="M269 327c71-57 152-81 240-75M247 373c88-53 203-65 344-36M285 287c58-59 130-82 216-72M389 226c42-32 91-40 148-22"/>
    <path class="bold" d="M268 436c-14 83-1 197 39 258 33 51 78 80 133 79 55-1 99-32 130-86 36-62 45-173 36-250"/>
    <path class="bold" d="M261 506c-37-2-57 37-43 86 10 36 36 62 66 62M611 506c38-2 58 37 43 86-10 36-36 62-66 62"/>
    <path class="line" d="M337 550c35-18 80-16 112 3M494 551c34-18 78-16 110 2"/>
    <path class="bold" d="M356 588c26-11 54-10 79 2M512 589c25-11 53-10 78 2"/>
    <path class="line" d="M461 590c-1 48-14 93-38 131 26 14 60 13 92-2"/>
    <path class="bold" d="M366 735c47 36 118 37 171 0"/>
    <path class="thin" d="M385 761c42 17 87 17 132 0M356 672c56 17 111 18 164 2"/>
    <path class="bold" d="M311 795c-106 38-188 112-251 223M569 795c107 38 190 113 254 225"/>
    <path class="bold" d="M280 865c43 54 97 92 162 113 66-24 119-61 160-113"/>
    <path class="line" d="M251 828c40 57 105 99 194 130M630 828c-41 58-105 101-190 130"/>
    <path class="bold" d="M118 1066c97-98 197-135 299-112M764 1068c-99-96-198-134-300-113"/>
    <path class="bold" d="M215 1005c60 71 152 107 275 111M660 1004c-60 70-153 107-277 112"/>
    <path class="line" d="M138 1084c130 46 254 57 374 32M745 1084c-115 44-235 55-360 32"/>
    <path class="thin" d="M305 835c35 48 81 84 139 106M579 836c-35 48-80 83-135 105M302 1012c95 45 198 58 308 38"/>
    <path class="shade" d="M333 510c72-25 153-26 244-2M339 526c77-9 156-6 236 9M386 706c47 13 96 13 145 0"/>
  </g>
</svg>
