<svg xmlns="http://www.w3.org/2000/svg" width="900" height="1200" viewBox="0 0 900 1200" role="img" aria-labelledby="title desc">
  <title id="title">夏洛克 Founder 线稿形象</title>
  <desc id="desc">根据侧脸照片绘制的夏洛克创始人简笔线稿，保留眼镜、侧脸、海边栏杆和深色外套姿态。</desc>
  <defs>
    <style>
      .bold{fill:none;stroke:#6f681b;stroke-width:10;stroke-linecap:round;stroke-linejoin:round}
      .line{fill:none;stroke:#6f681b;stroke-width:6;stroke-linecap:round;stroke-linejoin:round}
      .thin{fill:none;stroke:#9e9866;stroke-width:3.2;stroke-linecap:round;stroke-linejoin:round;opacity:.62}
      .shade{fill:none;stroke:#cbc5a1;stroke-width:2.4;stroke-linecap:round;stroke-linejoin:round;opacity:.54}
    </style>
  </defs>
  <g transform="translate(28 24)">
    <path class="bold" d="M473 232c-72-47-175-33-231 32-47 55-54 129-19 207"/>
    <path class="line" d="M253 303c54-49 119-72 195-65M229 342c70-45 143-57 221-37M260 270c48-34 104-48 169-43"/>
    <path class="thin" d="M274 254c51-20 101-27 151-18M235 323c72-28 143-32 213-13M230 373c62-22 125-20 190 5"/>
    <path class="bold" d="M364 319c-42 21-73 55-93 101"/>
    <path class="bold" d="M271 420c22 9 45 14 70 15"/>
    <path class="line" d="M337 436c-14 13-30 24-48 32"/>
    <path class="bold" d="M289 468c18 30 49 49 93 57"/>
    <path class="line" d="M320 401c28-8 56-3 84 13"/>
    <path class="bold" d="M337 415c17-7 36-5 57 8"/>
    <path class="line" d="M305 434c27 9 55 10 85 1"/>
    <path class="line" d="M260 421c-20 22-39 39-58 50"/>
    <path class="bold" d="M205 467c27 22 58 34 94 35"/>
    <path class="thin" d="M312 493c24 20 53 34 87 42M329 525c24 15 51 24 82 27"/>
    <path class="bold" d="M395 540c-24 58-16 109 25 151"/>
    <path class="bold" d="M327 584c-85 33-142 101-171 203"/>
    <path class="bold" d="M445 590c112 44 185 128 220 252"/>
    <path class="line" d="M243 672c69 72 155 108 260 108"/>
    <path class="line" d="M300 618c50 55 109 89 177 103"/>
    <path class="bold" d="M192 768c-23 92-20 190 10 294"/>
    <path class="bold" d="M653 840c24 75 27 151 8 229"/>
    <path class="line" d="M240 813c98 47 212 59 340 33M223 885c119 44 250 50 393 17M228 974c117 28 244 30 380 7"/>
    <path class="bold" d="M74 838c176-40 358-53 547-39"/>
    <path class="bold" d="M86 931c174-35 352-43 534-24"/>
    <path class="bold" d="M151 805c40 28 84 40 132 35"/>
    <path class="line" d="M151 804c-23 31-30 61-20 91M193 818c-7 37 4 65 33 84"/>
    <path class="line" d="M131 877c45 15 89 11 132-12"/>
    <path class="thin" d="M148 875c19-9 38-14 57-15M169 815c22 15 46 21 72 19"/>
    <path class="shade" d="M124 744c69-16 138-27 208-32M464 720c57 15 111 42 162 82M177 669c38-42 83-70 136-85"/>
  </g>
</svg>
