<svg xmlns="http://www.w3.org/2000/svg" width="900" height="1200" viewBox="0 0 900 1200" role="img" aria-labelledby="title desc">
  <title id="title">wuwu线稿形象</title>
  <desc id="desc">男性成员，轻侧脸、短发和条纹外套的高颜值简笔线稿。</desc>
  <defs>
    <style>
      .b{fill:none;stroke:#6f681b;stroke-width:10;stroke-linecap:round;stroke-linejoin:round}
      .l{fill:none;stroke:#6f681b;stroke-width:6;stroke-linecap:round;stroke-linejoin:round}
      .t{fill:none;stroke:#aaa47a;stroke-width:3;stroke-linecap:round;stroke-linejoin:round;opacity:.58}
    </style>
  </defs>
  <g transform="translate(44 24)">
    <path class="b" d="M282 382c-19-96 21-172 112-213 88-40 203-21 267 44 46 47 59 108 38 181"/>
    <path class="b" d="M300 320c58-82 146-119 260-108 74 7 126 39 157 96"/>
    <path class="l" d="M322 274c72-40 151-55 237-42M300 320c85-35 178-39 280-12M376 236c55-21 113-24 174-9"/>
    <path class="b" d="M318 372c-12 72 5 149 47 205 36 48 84 73 143 72 57-2 106-31 145-86"/>
    <path class="b" d="M320 436c-30 0-48 32-38 70 9 29 31 50 57 51"/>
    <path class="l" d="M410 476c33-12 72-10 108 6M554 474c34-9 70-5 105 12"/>
    <path class="b" d="M430 506c23-7 47-5 72 5M572 505c23-6 47-4 72 7"/>
    <path class="l" d="M526 510c-5 42-20 79-44 111 28 9 61 5 98-11"/>
    <path class="b" d="M454 638c45 25 104 22 156-10"/>
    <path class="b" d="M372 686c-106 36-185 112-236 226M636 686c109 36 188 111 238 225"/>
    <path class="l" d="M326 794c105 54 227 65 366 34M304 880c127 39 265 42 414 9M318 970c124 24 260 22 407-5"/>
    <path class="t" d="M360 802h322M342 872h360M352 942h340M406 732c35 42 72 70 111 84M634 732c-39 41-79 69-119 84"/>
  </g>
</svg>
