<svg xmlns="http://www.w3.org/2000/svg" viewBox="0 0 220 210" role="img" aria-labelledby="title desc">
  <title id="title">wuwu 简笔画</title>
  <desc id="desc">活泼开朗的男孩线稿形象。</desc>
  <g fill="none" stroke="#6f681b" stroke-width="4" stroke-linecap="round" stroke-linejoin="round">
    <path d="M68 92c1-36 24-58 57-58 33 0 52 24 53 61"/>
    <path d="M77 74c10-19 26-28 46-34"/>
    <path d="M98 62c18-13 39-17 63-10"/>
    <path d="M78 96c0 44 20 72 49 72s48-28 48-72"/>
    <path d="M78 109c-11 0-16 8-13 19 3 12 10 18 19 15"/>
    <path d="M174 109c11 0 16 8 13 19-3 12-10 18-19 15"/>
    <path d="M96 112c8-5 17-5 25 0"/>
    <path d="M135 112c8-5 17-5 25 0"/>
    <path d="M119 127c-3 9-6 17-12 24 7 4 17 4 24 0"/>
    <path d="M105 148c13 14 33 14 46 0"/>
    <path d="M42 202c10-29 32-45 66-50"/>
    <path d="M176 202c-9-29-31-45-64-50"/>
    <path d="M91 172c15 18 45 18 61 0"/>
    <path d="M174 155c13-4 24 2 28 14"/>
    <path d="M184 150l11 12 12-10"/>
  </g>
  <g fill="none" stroke="#d8cfab" stroke-width="2" stroke-linecap="round">
    <path d="M75 62c15-16 36-26 64-29"/>
    <path d="M83 52c11-12 25-20 43-24"/>
  </g>
</svg>
