<svg xmlns="http://www.w3.org/2000/svg" viewBox="0 0 220 210" role="img" aria-labelledby="title desc">
  <title id="title">Blanche 简笔画</title>
  <desc id="desc">安静读书的女孩线稿形象。</desc>
  <g fill="none" stroke="#6f681b" stroke-width="4" stroke-linecap="round" stroke-linejoin="round">
    <path d="M70 96c0-39 22-63 57-63s57 24 57 63"/>
    <path d="M73 92c-10 31-4 62 19 88"/>
    <path d="M181 92c10 31 4 62-19 88"/>
    <path d="M80 82c15-21 39-31 73-29"/>
    <path d="M83 68c18-11 39-15 64-11"/>
    <path d="M83 98c0 40 17 66 44 66s44-26 44-66"/>
    <path d="M96 114c8-5 17-5 24 0"/>
    <path d="M135 114c8-5 17-5 24 0"/>
    <path d="M107 145c12 9 27 9 39 0"/>
    <path d="M45 202c11-25 31-39 61-45"/>
    <path d="M175 202c-10-25-30-39-61-45"/>
    <path d="M76 171c20 18 80 18 100 0"/>
    <path d="M64 182c28-12 58-12 87 0"/>
    <path d="M151 182c11-6 23-7 36-3"/>
  </g>
  <g fill="none" stroke="#d8cfab" stroke-width="2.4" stroke-linecap="round" stroke-linejoin="round">
    <path d="M66 166c24-8 49-8 74 0"/>
    <path d="M140 166c15-6 30-6 45 0"/>
    <path d="M70 175c23-6 46-5 69 2"/>
    <path d="M142 176c14-4 27-3 41 3"/>
  </g>
</svg>
