<svg xmlns="http://www.w3.org/2000/svg" viewBox="0 0 220 210" role="img" aria-labelledby="title desc">
  <title id="title">九皮简笔画</title>
  <desc id="desc">活泼开朗的女孩线稿形象。</desc>
  <g fill="none" stroke="#6f681b" stroke-width="4" stroke-linecap="round" stroke-linejoin="round">
    <path d="M67 95c0-39 23-63 58-63s58 24 58 64"/>
    <path d="M72 85c13-24 38-36 77-35"/>
    <path d="M78 72c20-12 44-15 72-9"/>
    <path d="M79 97c0 42 19 69 47 69s47-27 47-69"/>
    <path d="M75 110c-10 1-15 8-12 19 3 11 10 17 18 13"/>
    <path d="M176 110c10 1 15 8 12 19-3 11-10 17-18 13"/>
    <path d="M95 113c8-5 18-5 26 0"/>
    <path d="M135 113c8-5 18-5 26 0"/>
    <path d="M106 146c13 13 29 13 42 0"/>
    <path d="M62 132c-16 7-23 22-18 39"/>
    <path d="M188 132c16 7 23 22 18 39"/>
    <path d="M44 202c11-28 33-44 67-50"/>
    <path d="M176 202c-10-28-32-44-66-50"/>
    <path d="M89 174c20 17 48 17 68 0"/>
    <path d="M178 57l8-10"/>
    <path d="M190 62l12-5"/>
    <path d="M183 72l12 6"/>
  </g>
  <g fill="none" stroke="#d8cfab" stroke-width="2" stroke-linecap="round">
    <path d="M83 62c16-12 38-18 65-14"/>
    <path d="M80 79c23-8 47-9 73-3"/>
  </g>
</svg>
