<svg xmlns="http://www.w3.org/2000/svg" viewBox="0 0 220 210" role="img" aria-labelledby="title desc">
  <title id="title">夏洛克简笔画</title>
  <desc id="desc">睿智沉稳的男孩线稿形象。</desc>
  <g fill="none" stroke="#6f681b" stroke-width="4" stroke-linecap="round" stroke-linejoin="round">
    <path d="M69 86c2-38 24-58 56-56 32 2 50 25 48 61"/>
    <path d="M73 76c17-24 49-34 86-28"/>
    <path d="M81 61c19-14 42-19 72-13"/>
    <path d="M77 92c0 45 18 73 49 73s48-28 48-73"/>
    <path d="M77 105c-12-1-17 8-14 20 3 13 11 19 20 15"/>
    <path d="M173 105c12-1 17 8 14 20-3 13-11 19-20 15"/>
    <circle cx="103" cy="111" r="12"/>
    <circle cx="146" cy="111" r="12"/>
    <path d="M115 111h19"/>
    <path d="M88 101c8-7 20-8 28-3"/>
    <path d="M136 98c10-5 21-4 29 3"/>
    <path d="M124 118c-4 11-7 21-14 29 8 4 20 4 28 0"/>
    <path d="M108 151c12 8 26 8 38 0"/>
    <path d="M42 202c10-29 31-45 61-50"/>
    <path d="M178 202c-9-28-30-44-58-50"/>
    <path d="M92 171l34 25 34-25"/>
  </g>
  <g fill="none" stroke="#d8cfab" stroke-width="2" stroke-linecap="round">
    <path d="M84 126c12-6 24-6 36 0"/>
    <path d="M132 126c12-6 24-6 36 0"/>
  </g>
</svg>
